<?xml version="1.0" encoding="UTF-8"?>
<svg id="Layer_2" data-name="Layer 2" xmlns="http://www.w3.org/2000/svg" xmlns:xlink="http://www.w3.org/1999/xlink" viewBox="0 0 114.4 34.22">
  <defs>
    <style>
      .cls-1 {
        fill: url(#linear-gradient-2);
      }

      .cls-2 {
        fill: url(#linear-gradient-6);
      }

      .cls-3 {
        clip-path: url(#clippath-2);
      }

      .cls-4 {
        clip-path: url(#clippath-6);
      }

      .cls-5 {
        fill: url(#linear-gradient-11);
      }

      .cls-6 {
        clip-path: url(#clippath-7);
      }

      .cls-7 {
        clip-path: url(#clippath-1);
      }

      .cls-8 {
        clip-path: url(#clippath-4);
      }

      .cls-9 {
        fill: url(#linear-gradient-10);
      }

      .cls-10 {
        fill: url(#linear-gradient-5);
      }

      .cls-11 {
        clip-path: url(#clippath-9);
      }

      .cls-12 {
        clip-path: url(#clippath);
      }

      .cls-13 {
        fill: none;
      }

      .cls-14 {
        clip-path: url(#clippath-3);
      }

      .cls-15 {
        fill: url(#linear-gradient-7);
      }

      .cls-16 {
        clip-path: url(#clippath-8);
      }

      .cls-17 {
        fill: url(#linear-gradient-9);
      }

      .cls-18 {
        fill: url(#linear-gradient-3);
      }

      .cls-19 {
        clip-path: url(#clippath-5);
      }

      .cls-20 {
        fill: url(#linear-gradient);
      }

      .cls-21 {
        clip-path: url(#clippath-10);
      }

      .cls-22 {
        fill: url(#linear-gradient-4);
      }

      .cls-23 {
        fill: url(#linear-gradient-8);
      }
    </style>
    <clipPath id="clippath">
      <path class="cls-13" d="m64.62,4.23l-.99,4.97c.68-.21,1.35-.42,2.03-.62C70.56,6.16,81.51,1.81,99.41.01c-.49-.01-.99-.01-1.5-.01-9.97,0-22.39,1.17-33.29,4.23"/>
    </clipPath>
    <linearGradient id="linear-gradient" x1="-343.42" y1="313.71" x2="-342.01" y2="313.71" gradientTransform="translate(11572.98 10518.05) scale(33.51 -33.51)" gradientUnits="userSpaceOnUse">
      <stop offset="0" stop-color="#ed1941"/>
      <stop offset=".3" stop-color="#e8183f"/>
      <stop offset=".65" stop-color="#d9153a"/>
      <stop offset="1" stop-color="#c41134"/>
    </linearGradient>
    <clipPath id="clippath-1">
      <path class="cls-13" d="m65.66,8.57C82.96,3.33,99.44,1.76,107.36,1.3c3.12-.18,4.92-.2,4.92-.2-.64-.13-1.36-.25-2.12-.36-2.87-.42-6.56-.68-10.74-.73-17.9,1.8-28.86,6.15-33.75,8.56"/>
    </clipPath>
    <linearGradient id="linear-gradient-2" x1="-347.54" y1="314.72" x2="-346.14" y2="314.72" gradientTransform="translate(-11628.8 -10628) rotate(-180) scale(33.78 -33.78)" gradientUnits="userSpaceOnUse">
      <stop offset="0" stop-color="#ed1941"/>
      <stop offset=".18" stop-color="#e7173f"/>
      <stop offset=".39" stop-color="#d81339"/>
      <stop offset=".64" stop-color="#be0d30"/>
      <stop offset=".89" stop-color="#9b0423"/>
      <stop offset="1" stop-color="#8b001d"/>
    </linearGradient>
    <clipPath id="clippath-2">
      <path class="cls-13" d="m10.39,1.08c6.58.34,15.91,1.54,17.68,5.57.18.31.29.67.29,1.08,0,4.26-14.19,7.97-14.19,7.97l8.94,8.88h10.14c-4.33-4.98-9.89-8.88-9.89-8.88,7.03-.23,12.9-3.46,12.9-8.44,0-.83-.15-1.57-.42-2.23-1.07-2.64-4.14-3.94-8.11-3.94H10.39Z"/>
    </clipPath>
    <linearGradient id="linear-gradient-3" x1="-346.32" y1="312.15" x2="-344.92" y2="312.15" gradientTransform="translate(7644.51 -8420.65) rotate(-90) scale(24.41 -24.41)" xlink:href="#linear-gradient"/>
    <clipPath id="clippath-3">
      <path class="cls-13" d="m3.73,1.08l-1.61,3.74h21.01s3.86-.08,4.94,1.83C26.31,2.62,16.98,1.42,10.39,1.08H3.73Z"/>
    </clipPath>
    <linearGradient id="linear-gradient-4" x1="-342.96" y1="313.34" x2="-341.55" y2="313.34" gradientTransform="translate(6581.28 6015.98) scale(19.19 -19.19)" xlink:href="#linear-gradient-2"/>
    <clipPath id="clippath-4">
      <polygon class="cls-13" points="6.28 7.22 0 24.55 8.23 24.55 14.49 7.22 6.28 7.22"/>
    </clipPath>
    <linearGradient id="linear-gradient-5" x1="-346.33" y1="312.34" x2="-344.92" y2="312.34" gradientTransform="translate(7633.57 -8421.51) rotate(-90) scale(24.42 -24.42)" xlink:href="#linear-gradient"/>
    <clipPath id="clippath-5">
      <path class="cls-13" d="m91.23,7c-2.03.2-4.08.44-6.12.7l-3.99,16.91h6.32l4.18-17.65c-.13.01-.26.03-.39.04"/>
    </clipPath>
    <linearGradient id="linear-gradient-6" x1="-346.34" y1="311.39" x2="-344.94" y2="311.39" gradientTransform="translate(7690.58 -8422.83) rotate(-90) scale(24.42 -24.42)" xlink:href="#linear-gradient"/>
    <clipPath id="clippath-6">
      <path class="cls-13" d="m74.17,9.28c-1.44,6.48-2.77,11.72-3.97,15.65-.56,1.78-1.21,3.03-1.97,3.78-.9.9-2.37,1.6-4.43,2.08-.02.02-.04.04-.05.05l-.8,3.38c2.01-.16,7.27-.88,10.49-4.02,1.73-1.69,2.87-4.18,3.45-6.24l3.9-15.7c-2.25.32-4.47.66-6.61,1.01"/>
    </clipPath>
    <linearGradient id="linear-gradient-7" x1="-346.32" y1="311.58" x2="-344.92" y2="311.58" gradientTransform="translate(7680.02 -8421.57) rotate(-90) scale(24.42 -24.42)" xlink:href="#linear-gradient"/>
    <clipPath id="clippath-7">
      <path class="cls-13" d="m63.24,11.2l-3.22,13.41h6.32l3.44-14.59c-2.35.41-4.55.81-6.54,1.19"/>
    </clipPath>
    <linearGradient id="linear-gradient-8" x1="-346.34" y1="311.65" x2="-344.93" y2="311.65" gradientTransform="translate(7675.01 -8422.45) rotate(-90) scale(24.42 -24.42)" xlink:href="#linear-gradient"/>
    <clipPath id="clippath-8">
      <path class="cls-13" d="m53.54,6.42s-1.28,7.12-2.46,11.12c-.15.52-.31,1-.52,1.43h0s-.02.04-.03.05c-.07.13-.14.27-.23.39-.61.91-1.64,1.52-3.78,1.71-2.73.24-4.05-.45-3.63-2.34l3.03-12.36h-6.73l-3.26,14.07c-.29,1.75.54,2.97,2.24,3.61.88.33,1.99.51,3.31.51,10.38,0,13.98-.23,15.4-4.51.74-2.25,3.23-13.67,3.23-13.67h-6.58Z"/>
    </clipPath>
    <linearGradient id="linear-gradient-9" x1="-346.34" y1="311.85" x2="-344.93" y2="311.85" gradientTransform="translate(7662.54 -8421.95) rotate(-90) scale(24.42 -24.42)" xlink:href="#linear-gradient"/>
    <clipPath id="clippath-9">
      <path class="cls-13" d="m91.55,17.19c-.16,2.19,1.06,5.9,6.53,7.09,5.1,1.1,11.22-1.1,12.76-1.76l1.13-4.38s-4.12,3.05-8.83,3.89c-5.59,1.01-11.88-.54-11.4-6.16-.1.44-.17.88-.2,1.32"/>
    </clipPath>
    <linearGradient id="linear-gradient-10" x1="-346.32" y1="311.24" x2="-344.91" y2="311.24" gradientTransform="translate(7700.53 -8420.59) rotate(-90) scale(24.41 -24.41)" xlink:href="#linear-gradient"/>
    <clipPath id="clippath-10">
      <path class="cls-13" d="m105.64,10.08c3.83-1.09,3.96,4.43-1.47,5.52-5.44,1.08-5.59,1.08-5.59,1.08,0,0,1.01-4.89,7.06-6.59m.17-3.81c-4.1.27-6.86,1.23-9.58,3.23-2.64,1.94-3.99,4.2-4.48,6.38-.48,5.62,5.82,7.17,11.4,6.16,4.71-.85,8.83-3.89,8.83-3.89-1.48.78-12.52,6.33-13.42.08h0c.09-.01,8.76-1.52,10.24-1.82,1.66-.32,5.26-1.51,5.58-4.65.11-1.1-.21-2.13-.9-3.01-1.18-1.49-3.45-2.51-6.62-2.51-.34,0-.69,0-1.05.03"/>
    </clipPath>
    <linearGradient id="linear-gradient-11" x1="-344.21" y1="319.11" x2="-342.81" y2="319.11" gradientTransform="translate(-4695.44 5176.03) rotate(90) scale(15.04 -15.04)" gradientUnits="userSpaceOnUse">
      <stop offset="0" stop-color="#ed1941"/>
      <stop offset=".24" stop-color="#e7173f"/>
      <stop offset=".53" stop-color="#d8143a"/>
      <stop offset=".85" stop-color="#bf0f31"/>
      <stop offset="1" stop-color="#b10c2d"/>
    </linearGradient>
  </defs>
  <g id="Layer_1-2" data-name="Layer 1">
    <g>
      <g class="cls-12">
        <rect class="cls-20" x="63.63" width="35.78" height="9.2"/>
      </g>
      <g class="cls-7">
        <rect class="cls-1" x="65.66" y=".01" width="46.62" height="8.56"/>
      </g>
      <g class="cls-3">
        <rect class="cls-18" x="10.39" y="1.08" width="25.87" height="23.51"/>
      </g>
      <g class="cls-14">
        <rect class="cls-22" x="2.13" y="1.08" width="25.95" height="5.57"/>
      </g>
      <g class="cls-8">
        <rect class="cls-10" y="7.22" width="14.49" height="17.33"/>
      </g>
      <g class="cls-19">
        <rect class="cls-2" x="81.12" y="6.96" width="10.5" height="17.65"/>
      </g>
      <g class="cls-4">
        <rect class="cls-15" x="62.94" y="8.27" width="17.84" height="25.95"/>
      </g>
      <g class="cls-6">
        <rect class="cls-23" x="60.02" y="10.02" width="9.76" height="14.59"/>
      </g>
      <g class="cls-16">
        <rect class="cls-17" x="35.65" y="6.42" width="24.47" height="18.19"/>
      </g>
      <g class="cls-11">
        <rect class="cls-9" x="91.27" y="15.87" width="20.71" height="9.51"/>
      </g>
      <g class="cls-21">
        <rect class="cls-5" x="91.27" y="6.23" width="23.22" height="18.24"/>
      </g>
    </g>
  </g>
</svg>